<?xml version="1.0" encoding="utf-8"?>
<!-- Generator: Adobe Illustrator 26.3.1, SVG Export Plug-In . SVG Version: 6.00 Build 0)  -->
<svg version="1.1" xmlns="http://www.w3.org/2000/svg" xmlns:xlink="http://www.w3.org/1999/xlink" x="0px" y="0px"
	 viewBox="0 0 500 500" style="enable-background:new 0 0 500 500;" xml:space="preserve">
<style type="text/css">
	.st0{fill:#F2A7B5;}
	.st1{fill:#FFFFFF;}
	.st2{fill:none;stroke:#69BC9B;stroke-miterlimit:10;}
</style>
<g id="unicare">
	<rect x="71.38" y="161" class="st0" width="334.5" height="136"/>
	<g>
		<path class="st1" d="M83.88,280.94c-3.57-5.05-5.35-12.28-5.35-21.71V170.4h14.02v90.16c0,3.99,0.62,6.88,1.85,8.65
			c1.23,1.78,3,2.66,5.29,2.66c2.29,0,4.06-0.89,5.29-2.66c1.23-1.77,1.85-4.66,1.85-8.65V170.4h13.51v88.83
			c0,9.43-1.78,16.66-5.35,21.71c-3.57,5.05-8.75,7.57-15.55,7.57C92.63,288.5,87.45,285.98,83.88,280.94z"/>
		<path class="st1" d="M130.28,170.4h17.59l13.64,70.39h0.26V170.4h12.49V288h-14.41l-16.83-85.85h-0.25V288h-12.49V170.4z"/>
		<path class="st1" d="M184.71,205.5h14.02V288h-14.02V205.5z"/>
		<path class="st1" d="M213.58,280.65c-3.53-4.9-5.29-11.81-5.29-20.74v-61.41c0-8.93,1.76-15.84,5.29-20.74
			c3.53-4.9,8.65-7.35,15.36-7.35c6.71,0,11.84,2.45,15.36,7.35c3.52,4.9,5.29,11.82,5.29,20.74v12.09h-13.26v-13.23
			c0-7.08-2.34-10.62-7.01-10.62c-4.67,0-7.01,3.54-7.01,10.62v63.86c0,6.97,2.34,10.45,7.01,10.45c4.67,0,7.01-3.48,7.01-10.45
			v-17.48h13.26v16.17c0,8.93-1.76,15.84-5.29,20.74c-3.53,4.9-8.65,7.35-15.36,7.35C222.23,288,217.11,285.55,213.58,280.65z"/>
		<path class="st1" d="M268.85,170.4h19L302.37,288h-14.02l-2.55-23.35v0.34h-15.93L267.32,288h-13L268.85,170.4z M284.14,249.02
			l-6.25-58.13h-0.26l-6.12,58.13H284.14z"/>
		<path class="st1" d="M309.13,170.4h20.78c7.22,0,12.49,2.21,15.81,6.64c3.31,4.43,4.97,11.23,4.97,20.41v7.22
			c0,12.21-3.06,19.94-9.18,23.18v0.34c3.4,1.34,5.8,4.09,7.2,8.23c1.4,4.14,2.1,9.69,2.1,16.63v20.66c0,3.36,0.08,6.08,0.25,8.15
			c0.17,2.07,0.6,4.12,1.28,6.13h-14.28c-0.51-1.9-0.85-3.69-1.02-5.37c-0.17-1.68-0.26-4.7-0.26-9.07v-21.5
			c0-5.38-0.66-9.13-1.97-11.26c-1.32-2.13-3.59-3.19-6.82-3.19h-4.85V288h-14.02V170.4z M328.25,213.26c2.81,0,4.91-0.76,6.31-2.28
			c1.4-1.52,2.1-4.07,2.1-7.65v-7.25c0-3.4-0.58-5.86-1.72-7.38c-1.15-1.52-2.95-2.28-5.42-2.28h-6.38v26.84H328.25z"/>
		<path class="st1" d="M360.5,170.4h38.24v16.8h-24.22v31.08h19.25v16.8h-19.25v36.12h24.22V288H360.5V170.4z"/>
	</g>
</g>
<g id="Calque_4">
	<path class="st1" d="M189.53,196.68c0,0,0.53-15.43,9.47-21.05c0,0-9.73,12.12-7.73,22.38c0,0,9.87-0.9,10.67-12.05
		c0.8-11.15,2-15.15,2-15.15s-10.53,2.53-15.2,10C184.07,188.28,187.8,195.35,189.53,196.68z"/>
	<path class="st1" d="M182.9,175.91l4.14,5.92c0,0-2.2,8.49-0.52,11.15c0,0-4.13-8.12-4.26-12.76c0,0,0.59,12.13,4.78,15.29
		C187.04,195.51,173.35,191.03,182.9,175.91z"/>
	<path class="st2" d="M280.66,25.59"/>
</g>
</svg>
